<?xml version="1.0" encoding="UTF-8" standalone="no"?>
<!DOCTYPE svg PUBLIC "-//W3C//DTD SVG 1.1//EN"
 "http://www.w3.org/Graphics/SVG/1.1/DTD/svg11.dtd">
<!-- Generated by graphviz version 2.40.1 (20161225.0304)
 -->
<!-- Title: G Pages: 1 -->
<svg width="148pt" height="95pt"
 viewBox="0.00 0.00 148.42 95.00" xmlns="http://www.w3.org/2000/svg" xmlns:xlink="http://www.w3.org/1999/xlink">
<g id="graph0" class="graph" transform="scale(1 1) rotate(0) translate(4 91)">
<title>G</title>
<polygon fill="#ffffff" stroke="transparent" points="-4,4 -4,-91 144.415,-91 144.415,4 -4,4"/>
<g id="clust1" class="cluster">
<title>cluster_Global</title>
<path fill="none" stroke="#c0c0c0" d="M20,-8C20,-8 120.415,-8 120.415,-8 126.415,-8 132.415,-14 132.415,-20 132.415,-20 132.415,-67 132.415,-67 132.415,-73 126.415,-79 120.415,-79 120.415,-79 20,-79 20,-79 14,-79 8,-73 8,-67 8,-67 8,-20 8,-20 8,-14 14,-8 20,-8"/>
<text text-anchor="middle" x="70.2075" y="-66.2" font-family="Times,serif" font-size="11.00" fill="#c0c0c0">Global</text>
</g>
<!-- \\UptimeRobotApi -->
<g id="node1" class="node">
<title>\\UptimeRobotApi</title>
<polygon fill="none" stroke="#000000" points="124.6234,-52 15.7917,-52 15.7917,-16 124.6234,-16 124.6234,-52"/>
<text text-anchor="middle" x="70.2075" y="-30.7" font-family="Courier,monospace" font-size="11.00" fill="#000000">UptimeRobotApi</text>
</g>
</g>
</svg>
